<svg width="15" height="12" viewBox="0 0 15 12" fill="none" xmlns="http://www.w3.org/2000/svg">
<path d="M2.20898 11.6343C0.914062 11.6343 0.222656 10.9546 0.222656 9.67139V3.51318C0.222656 2.22998 0.914062 1.54443 2.20898 1.54443H3.66797C4.125 1.54443 4.2832 1.46826 4.57617 1.16943L5.03906 0.688965C5.34961 0.366699 5.66602 0.214355 6.25781 0.214355H8.71289C9.30469 0.214355 9.62109 0.366699 9.93164 0.688965L10.3945 1.16943C10.6875 1.46826 10.8457 1.54443 11.2969 1.54443H12.791C14.0859 1.54443 14.7715 2.22998 14.7715 3.51318V9.67139C14.7715 10.9546 14.0859 11.6343 12.791 11.6343H2.20898ZM7.5 9.72998C9.24023 9.72998 10.6348 8.33545 10.6348 6.5835C10.6348 4.8374 9.24023 3.43701 7.5 3.43701C5.75977 3.43701 4.35938 4.8374 4.35938 6.5835C4.35938 8.33545 5.75977 9.72998 7.5 9.72998ZM11.0039 4.43311C11.0039 4.87842 11.3672 5.22998 11.8066 5.22998C12.2402 5.22412 12.6035 4.87256 12.6035 4.43311C12.6035 4.00537 12.2344 3.63623 11.8066 3.63623C11.373 3.63623 11.0039 4.00537 11.0039 4.43311ZM7.5 8.56396C6.41016 8.56396 5.52539 7.68506 5.52539 6.5835C5.52539 5.48779 6.4043 4.60303 7.5 4.60303C8.5957 4.60303 9.47461 5.48779 9.47461 6.5835C9.47461 7.68506 8.5957 8.56396 7.5 8.56396Z" fill="#393F41"/>
</svg>
